<?xml version="1.0" standalone="no"?>
<!DOCTYPE svg PUBLIC "-//W3C//DTD SVG 20010904//EN"
 "http://www.w3.org/TR/2001/REC-SVG-20010904/DTD/svg10.dtd">
<svg version="1.0" xmlns="http://www.w3.org/2000/svg"
 width="800.000000pt" height="600.000000pt" viewBox="0 0 800.000000 600.000000"
 preserveAspectRatio="xMidYMid meet">

<g transform="translate(0.000000,600.000000) scale(0.100000,-0.100000)"
fill="#000000" stroke="none">
<path d="M0 3000 l0 -3000 4000 0 4000 0 0 3000 0 3000 -4000 0 -4000 0 0
-3000z m3580 695 c145 -36 297 -134 389 -249 24 -31 47 -56 50 -56 3 0 80 74
171 165 l165 165 117 0 c65 0 118 -3 118 -7 0 -5 -111 -119 -247 -255 l-246
-246 14 -64 c18 -84 16 -237 -5 -318 -66 -257 -278 -467 -526 -524 -78 -18
-290 -33 -290 -20 0 5 39 48 87 96 56 57 95 88 109 88 12 0 51 9 86 20 247 76
408 333 370 588 -29 187 -164 357 -338 422 -88 32 -167 40 -431 40 l-253 0 0
83 c0 46 3 87 8 91 4 5 138 6 297 3 221 -4 305 -9 355 -22z m1490 18 c0 -5
-159 -167 -352 -360 l-353 -353 353 -353 c193 -193 352 -355 352 -360 0 -4
-53 -7 -117 -7 l-118 0 -317 317 -318 318 0 85 0 85 317 317 318 318 117 0
c65 0 118 -3 118 -7z m-1216 -598 c33 -124 59 -87 -336 -482 l-353 -353 -117
0 c-65 0 -118 3 -118 7 0 15 895 902 902 895 4 -4 14 -34 22 -67z"/>
</g>
</svg>
